<svg width="17" height="16" viewBox="0 0 17 16" fill="none" xmlns="http://www.w3.org/2000/svg">
<path d="M0.5 16C0.358333 16 0.239583 15.9521 0.14375 15.8562C0.0479167 15.7604 0 15.6417 0 15.5V9L1.625 4.9375C1.73611 4.65972 1.91667 4.43403 2.16667 4.26042C2.41667 4.08681 2.70139 4 3.02083 4H5.5V4.54167C5.5 4.70833 5.51389 4.87153 5.54167 5.03125C5.56945 5.19097 5.61806 5.34722 5.6875 5.5H3.02083L2.02083 8H7.875L10.1667 10.3125C9.97222 10.3819 9.8125 10.5 9.6875 10.6667C9.5625 10.8333 9.5 11.0278 9.5 11.25C9.5 11.5278 9.59722 11.7639 9.79167 11.9583C9.98611 12.1528 10.2222 12.25 10.5 12.25C10.7778 12.25 11.0069 12.1632 11.1875 11.9896C11.3681 11.816 11.4722 11.5972 11.5 11.3333C11.6667 11.4028 11.8333 11.4583 12 11.5C12.1667 11.5417 12.3333 11.5556 12.5 11.5417C12.7639 11.5278 13.0208 11.4688 13.2708 11.3646C13.5208 11.2604 13.7639 11.1111 14 10.9167V15.5C14 15.6417 13.9521 15.7604 13.8563 15.8562C13.7604 15.9521 13.6417 16 13.5 16H12.5C12.3583 16 12.2396 15.9521 12.1438 15.8562C12.0479 15.7604 12 15.6417 12 15.5V14.5H2V15.5C2 15.6417 1.95208 15.7604 1.85625 15.8562C1.76042 15.9521 1.64167 16 1.5 16H0.5ZM3.5 12.25C3.77778 12.25 4.01389 12.1528 4.20833 11.9583C4.40278 11.7639 4.5 11.5278 4.5 11.25C4.5 10.9722 4.40278 10.7361 4.20833 10.5417C4.01389 10.3472 3.77778 10.25 3.5 10.25C3.22222 10.25 2.98611 10.3472 2.79167 10.5417C2.59722 10.7361 2.5 10.9722 2.5 11.25C2.5 11.5278 2.59722 11.7639 2.79167 11.9583C2.98611 12.1528 3.22222 12.25 3.5 12.25ZM11.6026 9.62192L7.33406 5.33479C7.22247 5.22271 7.13889 5.10069 7.08333 4.96875C7.02778 4.83681 7 4.69444 7 4.54167V1.125C7 0.777778 7.1007 0.503472 7.30208 0.302083C7.50347 0.100694 7.77778 0 8.125 0H11.5417C11.6944 0 11.8368 0.0277778 11.9688 0.0833333C12.1007 0.138889 12.2227 0.222708 12.3348 0.334792L16.6219 4.62192C16.8601 4.86008 16.9792 5.125 16.9792 5.41667C16.9792 5.70833 16.8611 5.97222 16.625 6.20833L13.2083 9.625C12.9722 9.86111 12.7049 9.97917 12.4063 9.97917C12.1076 9.97917 11.8398 9.86008 11.6026 9.62192ZM10.2456 4C10.4569 4 10.6354 3.92855 10.7813 3.78565C10.9271 3.64273 11 3.46565 11 3.2544C11 3.04313 10.9285 2.86458 10.7856 2.71875C10.6427 2.57292 10.4656 2.5 10.2544 2.5C10.0431 2.5 9.86458 2.57145 9.71875 2.71435C9.57292 2.85727 9.5 3.03435 9.5 3.2456C9.5 3.45687 9.57145 3.63542 9.71436 3.78125C9.85727 3.92708 10.0344 4 10.2456 4Z" fill="white"/>
</svg>
