<svg width="15" height="8" viewBox="0 0 15 8" fill="none" xmlns="http://www.w3.org/2000/svg">
<path d="M3.69507 1.5V0H14.6951V1.5H3.69507ZM3.69507 4.75V3.25H14.6951V4.75H3.69507ZM3.69507 8V6.5H14.6951V8H3.69507ZM1.44507 1.5C1.25062 1.5 1.07701 1.42361 0.924235 1.27083C0.771457 1.11806 0.695068 0.940972 0.695068 0.739583C0.695068 0.538194 0.771457 0.364583 0.924235 0.21875C1.07701 0.0729167 1.2541 0 1.45549 0C1.65687 0 1.83048 0.0718745 1.97632 0.215624C2.12215 0.359375 2.19507 0.5375 2.19507 0.75C2.19507 0.944444 2.12319 1.11806 1.97944 1.27083C1.83569 1.42361 1.65757 1.5 1.44507 1.5ZM1.44507 4.75C1.25062 4.75 1.07701 4.67361 0.924235 4.52083C0.771457 4.36806 0.695068 4.19097 0.695068 3.98958C0.695068 3.78819 0.771457 3.61458 0.924235 3.46875C1.07701 3.32292 1.2541 3.25 1.45549 3.25C1.65687 3.25 1.83048 3.32188 1.97632 3.46563C2.12215 3.60938 2.19507 3.7875 2.19507 4C2.19507 4.19444 2.12319 4.36806 1.97944 4.52083C1.83569 4.67361 1.65757 4.75 1.44507 4.75ZM1.44507 8C1.25062 8 1.07701 7.92361 0.924235 7.77083C0.771457 7.61806 0.695068 7.44097 0.695068 7.23958C0.695068 7.03819 0.771457 6.86458 0.924235 6.71875C1.07701 6.57292 1.2541 6.5 1.45549 6.5C1.65687 6.5 1.83048 6.57188 1.97632 6.71563C2.12215 6.85938 2.19507 7.0375 2.19507 7.25C2.19507 7.44444 2.12319 7.61806 1.97944 7.77083C1.83569 7.92361 1.65757 8 1.44507 8Z" fill="white"/>
</svg>
