<svg width="13" height="12" viewBox="0 0 13 12" fill="none" xmlns="http://www.w3.org/2000/svg">
<path d="M6.69507 12C5.0284 12 3.61174 11.4167 2.44507 10.25C1.2784 9.08333 0.695068 7.66667 0.695068 6C0.695068 4.33333 1.2784 2.91667 2.44507 1.75C3.61174 0.583333 5.0284 0 6.69507 0C7.59785 0 8.43465 0.1875 9.20549 0.5625C9.97632 0.9375 10.6395 1.4375 11.1951 2.0625V0H12.6951V5H7.69507V3.5H10.4242C10.0215 2.88889 9.49368 2.40278 8.8409 2.04167C8.18812 1.68056 7.47285 1.5 6.69507 1.5C5.44507 1.5 4.38257 1.9375 3.50757 2.8125C2.63257 3.6875 2.19507 4.75 2.19507 6C2.19507 7.25 2.63257 8.3125 3.50757 9.1875C4.38257 10.0625 5.44507 10.5 6.69507 10.5C7.86174 10.5 8.86174 10.1146 9.69507 9.34375C10.5284 8.57292 11.0076 7.625 11.1326 6.5H12.6742C12.5492 8.05556 11.9173 9.36111 10.7784 10.4167C9.63951 11.4722 8.2784 12 6.69507 12Z" fill="#152D6D"/>
</svg>
