<svg width="15" height="14" viewBox="0 0 15 14" fill="none" xmlns="http://www.w3.org/2000/svg">
<path d="M0 12.0129V10.0129C0 9.69349 0.0868056 9.39141 0.260417 9.10669C0.434028 8.82197 0.673611 8.58238 0.979167 8.38794C1.74306 7.94349 2.55112 7.60322 3.40335 7.36711C4.25559 7.131 5.12114 7.01294 6 7.01294C6.52332 7.01294 7.03956 7.05461 7.54873 7.13794C8.05791 7.22127 8.55556 7.33933 9.04167 7.49211L7.83333 8.70044C7.52778 8.63099 7.22485 8.58238 6.92456 8.55461C6.62429 8.52683 6.3161 8.51294 6 8.51294C5.23611 8.51294 4.49306 8.61016 3.77083 8.80461C3.04861 8.99905 2.36806 9.29072 1.72917 9.67961C1.65972 9.73516 1.60417 9.7888 1.5625 9.84052C1.52083 9.89225 1.5 9.94972 1.5 10.0129V10.5129H6.5V12.0129H0ZM8 13.0129V10.6588L12.375 6.30461C12.4758 6.20166 12.5878 6.12732 12.711 6.08156C12.8342 6.03581 12.9567 6.01294 13.0783 6.01294C13.211 6.01294 13.3382 6.03725 13.4599 6.08586C13.5815 6.13447 13.6921 6.20738 13.7917 6.30461L14.7083 7.24211C14.7998 7.34291 14.8713 7.45492 14.9228 7.57813C14.9743 7.70134 15 7.82377 15 7.94542C15 8.06709 14.9771 8.19151 14.9314 8.31869C14.8856 8.44587 14.8113 8.55923 14.7083 8.65877L10.3542 13.0129H8ZM9 12.0129H9.9375L12.3333 9.61711L11.875 9.13794L11.4167 8.67961L9 11.0754V12.0129ZM11.875 9.13794L11.4167 8.67961L12.3333 9.61711L11.875 9.13794ZM6 6.01294C5.16667 6.01294 4.45833 5.72127 3.875 5.13794C3.29167 4.55461 3 3.84627 3 3.01294C3 2.17961 3.29167 1.47127 3.875 0.887939C4.45833 0.304606 5.16667 0.0129395 6 0.0129395C6.83333 0.0129395 7.54167 0.304606 8.125 0.887939C8.70833 1.47127 9 2.17961 9 3.01294C9 3.84627 8.70833 4.55461 8.125 5.13794C7.54167 5.72127 6.83333 6.01294 6 6.01294ZM6.00442 4.51294C6.41814 4.51294 6.77083 4.36563 7.0625 4.07102C7.35417 3.7764 7.5 3.42223 7.5 3.00852C7.5 2.5948 7.35269 2.24211 7.05808 1.95044C6.76346 1.65877 6.40929 1.51294 5.99558 1.51294C5.58186 1.51294 5.22917 1.66024 4.9375 1.95486C4.64583 2.24948 4.5 2.60365 4.5 3.01736C4.5 3.43108 4.64731 3.78377 4.94192 4.07544C5.23654 4.36711 5.59071 4.51294 6.00442 4.51294Z" fill="white"/>
</svg>
