<svg width="17" height="14" viewBox="0 0 17 14" fill="none" xmlns="http://www.w3.org/2000/svg">
<path d="M12.1951 4V1.5H5.19507V4H3.69507V0H13.6951V4H12.1951ZM13.4407 7.5C13.6519 7.5 13.8305 7.42855 13.9763 7.28565C14.1222 7.14273 14.1951 6.96565 14.1951 6.7544C14.1951 6.54313 14.1236 6.36458 13.9807 6.21875C13.8378 6.07292 13.6607 6 13.4495 6C13.2382 6 13.0597 6.07145 12.9138 6.21435C12.768 6.35727 12.6951 6.53435 12.6951 6.7456C12.6951 6.95687 12.7665 7.13542 12.9094 7.28125C13.0523 7.42708 13.2294 7.5 13.4407 7.5ZM12.1951 12.5V9.5H5.19507V12.5H12.1951ZM13.6951 14H3.69507V11H0.695068V6C0.695068 5.44444 0.889513 4.97222 1.2784 4.58333C1.66729 4.19444 2.13951 4 2.69507 4H14.6951C15.2506 4 15.7228 4.19444 16.1117 4.58333C16.5006 4.97222 16.6951 5.44444 16.6951 6V11H13.6951V14ZM15.2159 9.5V6.2985C15.2159 6.07172 15.1326 5.88194 14.9659 5.72917C14.7992 5.57639 14.6048 5.5 14.3826 5.5H2.98674C2.76243 5.5 2.57441 5.57667 2.42267 5.73C2.27094 5.88333 2.19507 6.07333 2.19507 6.3V9.5H3.69507V8H13.6951V9.5H15.2159Z" fill="#152D6D"/>
</svg>
