<svg width="16" height="16" viewBox="0 0 16 16" fill="none" xmlns="http://www.w3.org/2000/svg">
<path d="M14.036 15.5L8.78597 10.25C8.3693 10.5833 7.89014 10.8472 7.34847 11.0417C6.8068 11.2361 6.23041 11.3333 5.6193 11.3333C4.10541 11.3333 2.82416 10.809 1.77555 9.76042C0.726942 8.71181 0.202637 7.43056 0.202637 5.91667C0.202637 4.40278 0.726942 3.12153 1.77555 2.07292C2.82416 1.02431 4.10541 0.5 5.6193 0.5C7.13319 0.5 8.41444 1.02431 9.46305 2.07292C10.5117 3.12153 11.036 4.40278 11.036 5.91667C11.036 6.52778 10.9387 7.10417 10.7443 7.64583C10.5499 8.1875 10.286 8.66667 9.95264 9.08333L15.2026 14.3333L14.036 15.5ZM5.6193 9.66667C6.66097 9.66667 7.54639 9.30208 8.27555 8.57292C9.00472 7.84375 9.3693 6.95833 9.3693 5.91667C9.3693 4.875 9.00472 3.98958 8.27555 3.26042C7.54639 2.53125 6.66097 2.16667 5.6193 2.16667C4.57764 2.16667 3.69222 2.53125 2.96305 3.26042C2.23389 3.98958 1.8693 4.875 1.8693 5.91667C1.8693 6.95833 2.23389 7.84375 2.96305 8.57292C3.69222 9.30208 4.57764 9.66667 5.6193 9.66667Z" fill="#ffffff"/>
</svg>
